<svg viewBox="0 0 443.97 152.45" xmlns="http://www.w3.org/2000/svg" xmlns:xlink="http://www.w3.org/1999/xlink" id="a" overflow="hidden"><path d="M43.85 45.93C46.61 43.91 50.48 44.51 52.5 47.26 54.52 50.02 53.92 53.89 51.17 55.91L17.27 79.11 66.26 109.12 121.44 74.82C124.34 73.01 128.16 73.9 129.97 76.81 130.6 77.83 130.91 78.96 130.91 80.08L130.91 80.08 131.15 109.03 131.15 109.03C131.41 111.34 130.36 113.69 128.27 114.99L69.55 151.51C67.63 152.7 65.12 152.79 63.05 151.53L2.97 114.73C0.05 112.95-0.87 109.14 0.91 106.22 2.69 103.3 6.5 102.38 9.42 104.16L66.27 138.99 118.73 106.36 118.53 91.24 69.58 121.67C67.66 122.86 65.15 122.95 63.08 121.69L3.09 84.95C2.37 84.53 1.72 83.96 1.19 83.25-0.83 80.49-0.23 76.62 2.52 74.6L43.84 45.93Z" fill="#3185C6" fill-rule="evenodd"/><path d="M2.34 40.99 51.17 7.75C57.18 2.86 65.28 0.27 73.47 0.02 81.58-0.22 89.93 1.84 96.55 6.27 110.41 15.54 112.01 26.7 105.4 36.64 99.15 46.04 69.29 64.5 58.18 72.29L72.75 81.65C75.63 83.5 76.46 87.33 74.62 90.21 72.77 93.09 68.94 93.92 66.06 92.08L44.42 78.18C44.21 78.06 44.01 77.93 43.8 77.78L28.53 67.97C28.15 67.73 27.81 67.45 27.5 67.14L2.74 50.97C-0.1 49.07-0.86 45.23 1.04 42.39 1.41 41.84 1.85 41.37 2.34 40.98L2.34 40.98ZM33.82 56.87C34.31 57.03 34.78 57.25 35.23 57.54L46.42 64.73 80.06 42.22C85.46 38.61 100.26 28.91 93.41 19.88 92.44 18.69 91.2 17.56 89.67 16.55 85.24 13.59 79.49 12.21 73.81 12.38 63.62 12.69 57.6 18.25 49.58 23.55L16.58 45.35 33.82 56.87Z" fill="#EA5550" fill-rule="evenodd"/><path d="M188.51 20.83C191.51 20.83 194.02 21.83 196.03 23.83 198.04 25.83 199.05 28.31 199.05 31.28 199.05 34.25 198.04 36.69 196.03 38.71 194.02 40.73 191.51 41.73 188.51 41.73L182.01 41.73 182.01 52.64 176.78 52.64 176.78 20.83 188.5 20.83ZM188.51 36.82C190.06 36.82 191.33 36.3 192.33 35.25 193.33 34.2 193.83 32.88 193.83 31.27 193.83 29.66 193.33 28.34 192.33 27.29 191.33 26.24 190.06 25.72 188.51 25.72L182.01 25.72 182.01 36.81 188.51 36.81ZM221.13 52.63 226.76 52.63 215.26 20.82 208.99 20.82 197.45 52.63 203.13 52.63 205.36 46.22 218.9 46.22 221.13 52.63 221.13 52.63ZM207.09 41.32 212.13 26.96 217.17 41.32 207.08 41.32ZM246.35 36.14C249.59 37.68 251.21 40.24 251.21 43.82 251.21 46.61 250.16 48.87 248.05 50.61 245.94 52.35 243.2 53.22 239.8 53.22 233.98 53.22 230.14 50.77 228.26 45.86L232.76 43.27C233.7 46.63 236.05 48.31 239.8 48.31 241.8 48.31 243.33 47.88 244.39 47.02 245.45 46.16 245.98 45 245.98 43.54 245.98 42.08 245.47 40.97 244.46 40.11 243.45 39.25 242.01 38.81 240.17 38.81L236.31 38.81 236.31 34.08 239.13 34.08C240.92 34.08 242.31 33.67 243.31 32.85 244.31 32.03 244.81 30.94 244.81 29.58 244.81 28.22 244.36 27.13 243.45 26.33 242.54 25.53 241.24 25.13 239.54 25.13 236.39 25.13 234.27 26.57 233.18 29.45L228.73 26.86C230.79 22.44 234.39 20.23 239.54 20.23 242.66 20.23 245.19 21.07 247.13 22.75 249.07 24.43 250.04 26.62 250.04 29.32 250.04 32.32 248.81 34.59 246.36 36.14L246.36 36.14ZM274.48 36.14C275.87 36.87 276.96 37.87 277.75 39.14 278.54 40.41 278.93 41.88 278.93 43.55 278.93 46.16 278.01 48.32 276.16 50.05 274.31 51.78 272.06 52.64 269.39 52.64L255.76 52.64 255.76 20.83 268.39 20.83C271 20.83 273.2 21.67 275 23.35 276.8 25.03 277.7 27.13 277.7 29.64 277.7 32.4 276.62 34.56 274.47 36.14L274.47 36.14ZM268.39 25.73 260.98 25.73 260.98 34.09 268.39 34.09C269.54 34.09 270.51 33.69 271.3 32.89 272.09 32.09 272.48 31.1 272.48 29.91 272.48 28.72 272.09 27.74 271.3 26.93 270.51 26.13 269.54 25.73 268.39 25.73L268.39 25.73ZM269.39 47.72C270.6 47.72 271.62 47.29 272.46 46.42 273.29 45.56 273.71 44.5 273.71 43.26 273.71 42.02 273.29 40.97 272.46 40.1 271.63 39.24 270.6 38.8 269.39 38.8L260.98 38.8 260.98 47.71 269.39 47.71ZM302.56 52.63 302.56 31.05 287.57 52.63 283.48 52.63 283.48 20.82 288.71 20.82 288.71 42.4 303.7 20.82 307.79 20.82 307.79 52.63 302.56 52.63ZM334.82 20.82 334.82 25.82 325.87 25.82 325.87 52.63 320.64 52.63 320.64 25.82 311.64 25.82 311.64 20.82 334.81 20.82ZM357.77 52.63 357.77 31.05 342.78 52.63 338.69 52.63 338.69 20.82 343.92 20.82 343.92 42.4 358.91 20.82 363 20.82 363 52.63 357.77 52.63ZM374.58 47.63 388.67 47.63 388.67 52.63 369.36 52.63 369.36 20.82 388.44 20.82 388.44 25.82 374.58 25.82 374.58 34.09 387.3 34.09 387.3 39.04 374.58 39.04 374.58 47.63 374.58 47.63ZM200.19 61.91 200.19 93.72 194.96 93.72 194.96 66.91 182.01 66.91 182.01 93.72 176.78 93.72 176.78 61.91 200.18 61.91ZM211.78 88.72 225.87 88.72 225.87 93.72 206.56 93.72 206.56 61.91 225.64 61.91 225.64 66.91 211.78 66.91 211.78 75.18 224.5 75.18 224.5 80.13 211.78 80.13 211.78 88.72 211.78 88.72ZM242.36 61.91C245.36 61.91 247.87 62.91 249.88 64.91 251.89 66.91 252.9 69.39 252.9 72.36 252.9 75.33 251.89 77.77 249.88 79.79 247.87 81.8 245.36 82.81 242.36 82.81L235.86 82.81 235.86 93.72 230.63 93.72 230.63 61.91 242.35 61.91ZM242.36 77.9C243.91 77.9 245.18 77.38 246.18 76.33 247.18 75.28 247.68 73.96 247.68 72.35 247.68 70.74 247.18 69.42 246.18 68.37 245.18 67.32 243.91 66.8 242.36 66.8L235.86 66.8 235.86 77.89 242.36 77.89ZM272.21 94.3C267.42 94.3 263.46 92.72 260.31 89.55 257.16 86.38 255.58 82.47 255.58 77.8 255.58 73.13 257.16 69.22 260.31 66.05 263.46 62.88 267.43 61.3 272.21 61.3 275.09 61.3 277.75 61.98 280.18 63.34 282.62 64.7 284.52 66.55 285.88 68.88L281.34 71.52C280.49 69.94 279.26 68.7 277.64 67.77 276.02 66.85 274.21 66.38 272.21 66.38 268.82 66.38 266.07 67.46 263.96 69.61 261.85 71.76 260.8 74.49 260.8 77.79 260.8 81.09 261.85 83.82 263.96 85.97 266.07 88.12 268.81 89.2 272.21 89.2 274.21 89.2 276.03 88.74 277.66 87.81 279.3 86.89 280.52 85.64 281.34 84.06L285.88 86.65C284.55 88.98 282.66 90.84 280.22 92.22 277.78 93.6 275.11 94.29 272.2 94.29L272.2 94.29ZM316.58 89.51C313.38 92.71 309.48 94.3 304.88 94.3 300.28 94.3 296.38 92.7 293.18 89.51 289.98 86.31 288.39 82.41 288.39 77.81 288.39 73.21 289.99 69.31 293.18 66.11 296.38 62.91 300.28 61.32 304.88 61.32 309.48 61.32 313.38 62.92 316.58 66.11 319.78 69.31 321.37 73.21 321.37 77.81 321.37 82.41 319.77 86.31 316.58 89.51L316.58 89.51ZM296.86 85.97C299.03 88.14 301.7 89.22 304.88 89.22 308.06 89.22 310.73 88.14 312.9 85.97 315.07 83.8 316.15 81.08 316.15 77.81 316.15 74.54 315.07 71.82 312.9 69.65 310.73 67.48 308.06 66.4 304.88 66.4 301.7 66.4 299.03 67.48 296.86 69.65 294.69 71.82 293.61 74.53 293.61 77.81 293.61 81.09 294.69 83.8 296.86 85.97L296.86 85.97ZM345 61.91 350.23 61.91 350.23 93.72 345 93.72 345 79.95 331.37 79.95 331.37 93.72 326.14 93.72 326.14 61.91 331.37 61.91 331.37 74.95 345 74.95 345 61.91 345 61.91ZM377.31 93.72 375.08 87.31 361.54 87.31 359.31 93.72 353.63 93.72 365.17 61.91 371.44 61.91 382.94 93.72 377.31 93.72ZM363.27 82.41 373.36 82.41 368.32 68.05 363.28 82.41 363.28 82.41ZM383.99 93.72 383.99 88.9C385.99 89.17 387.48 88.69 388.47 87.45 389.45 86.21 389.95 83.83 389.95 80.32L389.95 61.92 411.26 61.92 411.26 93.73 406.03 93.73 406.03 66.92 395.17 66.92 395.17 80.23C395.17 83.02 394.87 85.36 394.28 87.27 393.69 89.18 392.85 90.61 391.76 91.56 390.67 92.51 389.5 93.15 388.24 93.47 386.98 93.79 385.57 93.87 383.99 93.72L383.99 93.72ZM438.33 93.72 436.1 87.31 422.56 87.31 420.33 93.72 414.65 93.72 426.19 61.91 432.46 61.91 443.96 93.72 438.33 93.72ZM424.29 82.41 434.38 82.41 429.34 68.05 424.3 82.41Z" fill="#362D70" fill-rule="evenodd"/><path d="M185.35 111.86 187.15 111.86 182.85 122.06C182.37 123.21 181.75 124.04 181 124.55 180.25 125.07 179.33 125.29 178.25 125.23L178.25 123.59C178.99 123.67 179.59 123.56 180.05 123.27 180.51 122.98 180.89 122.47 181.2 121.76L181.33 121.45 176.8 111.86 178.6 111.86 182.15 119.5 185.36 111.86 185.36 111.86ZM202.23 111.86 204.01 111.86 204.01 125.23 202.23 125.23 202.23 119.84C201.19 120.34 200.09 120.59 198.94 120.59 197.64 120.59 196.59 120.22 195.79 119.49 194.99 118.76 194.59 117.81 194.59 116.63L194.59 111.85 196.37 111.85 196.37 116.51C196.37 117.24 196.6 117.82 197.06 118.25 197.52 118.68 198.15 118.9 198.97 118.9 200.12 118.9 201.2 118.65 202.24 118.16L202.24 111.86 202.24 111.86ZM214.76 123.55 220.97 123.55 220.97 125.23 212.99 125.23 212.99 111.86 220.88 111.86 220.88 113.54 214.77 113.54 214.77 117.65 220.4 117.65 220.4 119.31 214.77 119.31 214.77 123.55 214.77 123.55ZM234.24 117.11C235.4 117.11 236.38 117.5 237.18 118.29 237.98 119.07 238.38 120.03 238.38 121.16 238.38 122.29 237.98 123.29 237.19 124.06 236.39 124.84 235.41 125.23 234.24 125.23L229.22 125.23 229.22 111.86 237.24 111.86 237.24 113.54 230.99 113.54 230.99 117.11 234.24 117.11ZM234.24 123.57C234.9 123.57 235.47 123.34 235.93 122.88 236.39 122.42 236.63 121.85 236.63 121.16 236.63 120.47 236.4 119.92 235.93 119.46 235.47 119 234.9 118.77 234.24 118.77L230.99 118.77 230.99 123.56 234.24 123.56ZM254.77 111.86 256.53 111.86 256.53 125.23 254.77 125.23 254.77 119.21 248.28 119.21 248.28 125.23 246.5 125.23 246.5 111.86 248.28 111.86 248.28 117.53 254.77 117.53 254.77 111.86 254.77 111.86ZM265.5 125.23 265.5 111.86 267.28 111.86 267.28 116.64 270.36 116.64C271.6 116.64 272.62 117.05 273.44 117.88 274.26 118.71 274.67 119.73 274.67 120.94 274.67 122.15 274.26 123.18 273.44 124.01 272.62 124.84 271.59 125.24 270.36 125.24L265.51 125.24ZM276.02 125.23 276.02 111.86 277.8 111.86 277.8 125.23 276.02 125.23ZM267.27 123.57 270.35 123.57C271.09 123.57 271.7 123.32 272.18 122.83 272.66 122.33 272.91 121.7 272.91 120.94 272.91 120.18 272.67 119.55 272.18 119.05 271.7 118.55 271.08 118.31 270.35 118.31L267.27 118.31 267.27 123.58 267.27 123.58ZM289.23 110.43 289.23 108.98 294.39 108.98 294.39 110.43 289.23 110.43ZM295.08 125.23 295.08 115.26 288.2 125.23 286.77 125.23 286.77 111.86 288.55 111.86 288.55 121.85 295.43 111.86 296.86 111.86 296.86 125.23 295.08 125.23ZM320.31 123.55 321.74 123.55 321.74 127.79 319.96 127.79 319.96 125.23 310.6 125.23 310.6 111.86 312.38 111.86 312.38 123.55 318.53 123.55 318.53 111.86 320.31 111.86 320.31 123.55 320.31 123.55ZM331.67 123.55 337.88 123.55 337.88 125.23 329.9 125.23 329.9 111.86 337.79 111.86 337.79 113.54 331.68 113.54 331.68 117.65 337.31 117.65 337.31 119.31 331.68 119.31 331.68 123.55 331.68 123.55ZM354.4 111.86 356.16 111.86 356.16 125.23 354.4 125.23 354.4 119.21 347.91 119.21 347.91 125.23 346.13 125.23 346.13 111.86 347.91 111.86 347.91 117.53 354.4 117.53 354.4 111.86 354.4 111.86ZM373.69 111.86 373.69 113.54 369.74 113.54 369.74 125.23 367.98 125.23 367.98 113.54 364.05 113.54 364.05 111.86 373.7 111.86ZM386.41 111.86C387.65 111.86 388.67 112.27 389.49 113.09 390.31 113.91 390.72 114.93 390.72 116.16 390.72 117.39 390.31 118.39 389.49 119.22 388.67 120.05 387.64 120.46 386.41 120.46L383.33 120.46 383.33 125.24 381.55 125.24 381.55 111.87 386.4 111.87ZM386.41 118.79C387.15 118.79 387.76 118.54 388.24 118.04 388.72 117.54 388.97 116.91 388.97 116.16 388.97 115.41 388.73 114.77 388.24 114.27 387.76 113.77 387.14 113.53 386.41 113.53L383.33 113.53 383.33 118.8 386.41 118.8Z" fill="#362D70" fill-rule="evenodd"/></svg>